<svg version="1.1" id="Layer_1" xmlns="http://www.w3.org/2000/svg" xmlns:xlink="http://www.w3.org/1999/xlink" x="0px" y="0px"
	 width="100%" viewBox="0 0 1920 1080" enable-background="new 0 0 1920 1080" xml:space="preserve">
<path fill="#000000" opacity="1.000000" stroke="none" 
	d="
M1284.000000,1081.000000 
	C856.000061,1081.000000 428.500153,1081.000000 1.000172,1081.000000 
	C1.000115,721.000122 1.000115,361.000275 1.000057,1.000317 
	C640.999756,1.000211 1280.999512,1.000211 1920.999512,1.000106 
	C1920.999634,360.999664 1920.999634,720.999329 1920.999756,1080.999512 
	C1708.833374,1081.000000 1496.666626,1081.000000 1284.000000,1081.000000 
M1096.854370,476.000732 
	C1102.710938,478.635315 1108.541382,481.331055 1114.446899,483.851013 
	C1115.580811,484.334869 1117.009644,484.128021 1118.302490,484.239807 
	C1118.389648,482.850586 1118.994019,481.192230 1118.443726,480.134735 
	C1117.603027,478.519287 1116.057617,477.214752 1114.650269,475.958893 
	C1105.498779,467.792664 1094.229980,465.538269 1082.539307,465.102661 
	C1065.772949,464.477814 1050.559814,470.249176 1035.901123,477.619507 
	C1024.194824,483.505371 1012.661926,489.074371 999.129272,490.361603 
	C987.515320,491.466309 976.962830,490.457764 966.133301,483.949524 
	C967.275513,481.888275 967.856934,479.338562 969.437561,478.278381 
	C973.565125,475.509766 978.035400,473.188843 982.556335,471.093414 
	C985.240967,469.849091 985.813599,468.797180 983.922058,466.367462 
	C977.431580,458.030518 967.990723,454.508881 958.400513,453.320129 
	C940.463318,451.096771 923.532532,455.732941 907.832275,464.666840 
	C900.706177,468.721771 893.816589,473.252594 886.460388,476.828461 
	C875.711731,482.053436 864.128845,482.254272 852.605530,480.232239 
	C846.944153,479.238739 841.518005,476.958466 835.916809,475.529358 
	C834.563110,475.183929 832.937561,475.904022 831.437012,476.134186 
	C831.931702,477.567963 832.018921,479.469635 833.010376,480.333130 
	C834.795593,481.888000 837.096558,482.869934 839.228271,484.004333 
	C845.624939,487.408386 852.384216,489.497314 859.705872,489.263550 
	C867.531433,489.013672 875.756226,490.080383 883.074585,487.998627 
	C891.935242,485.478149 899.994568,480.186890 908.462158,476.226227 
	C918.496399,471.532776 927.959106,465.830078 939.578796,464.689056 
	C948.362976,463.826477 956.606934,464.457123 965.912659,466.513306 
	C963.853027,468.407166 962.539429,469.788544 961.054443,470.950928 
	C954.076111,476.413269 954.109253,488.293427 960.856445,494.032043 
	C967.557190,499.731293 975.602112,502.036621 983.890259,502.861145 
	C1001.438904,504.606964 1017.659973,499.386414 1033.448120,492.213348 
	C1044.850708,487.032806 1056.361572,482.033813 1068.079468,477.634064 
	C1072.409424,476.008301 1077.469482,476.327423 1082.056519,476.705933 
	C1082.226685,496.249573 1075.404053,513.727112 1066.071777,530.431641 
	C1063.633057,534.796875 1061.278198,539.315796 1058.140381,543.155823 
	C1054.394897,547.739502 1049.666260,551.504517 1045.688599,555.917053 
	C1037.854858,564.607178 1028.282837,571.038391 1018.069336,576.267761 
	C1003.529236,583.712158 988.002563,586.768738 971.418457,586.315979 
	C957.007019,585.922607 943.557007,582.688354 930.267212,577.748901 
	C920.269287,574.032959 910.538757,572.458008 901.184692,583.233459 
	C896.190796,588.986267 891.156799,594.799805 885.478271,599.839233 
	C877.801453,606.652222 869.355042,612.589294 861.480103,619.190063 
	C851.275330,627.743713 839.623047,633.420349 826.900574,636.826111 
	C823.778931,637.661682 821.925537,639.674744 822.336060,641.746277 
	C822.672424,643.443542 825.759033,645.654968 827.729980,645.763794 
	C832.946289,646.051758 838.218079,645.060852 843.469055,645.046692 
	C860.874451,644.999573 876.961060,639.571350 892.544373,632.674683 
	C899.766724,629.478271 906.416870,627.869324 913.879150,631.330383 
	C916.746765,632.660339 919.983337,633.296509 923.115601,633.936340 
	C936.560486,636.682434 950.132019,638.300598 963.853027,636.921875 
	C971.924744,636.110840 980.098145,635.349915 987.939819,633.410156 
	C1004.550781,629.301392 1020.115845,622.190125 1033.920288,612.234680 
	C1044.736206,604.434692 1054.890381,595.592773 1063.153687,584.741638 
	C1073.272339,571.453979 1082.143555,557.505066 1087.573608,541.706543 
	C1092.537354,527.265137 1096.399292,512.500793 1096.007690,496.967224 
	C1095.831299,489.977295 1096.040039,482.977661 1096.854370,476.000732 
M984.356201,544.023193 
	C969.428833,544.278687 955.023254,541.850220 941.167297,536.100830 
	C934.661621,533.401367 927.692871,535.157288 925.139465,540.065735 
	C923.688660,542.854492 922.245483,544.492371 918.840759,544.169556 
	C917.907043,544.080933 916.216675,545.536865 915.893372,546.595459 
	C914.692261,550.528442 913.916260,554.591370 912.853516,559.150757 
	C911.372375,559.359009 909.128906,559.899414 906.882568,559.911682 
	C905.370605,559.919983 903.387085,559.641235 902.441040,558.678650 
	C900.661011,556.867371 899.511169,554.446289 898.041870,552.318481 
	C892.112732,543.731689 879.262451,544.690796 873.437256,549.940125 
	C870.977661,552.156555 867.824036,553.602722 863.906616,556.082092 
	C863.906616,560.480469 863.906616,566.490601 863.906616,573.033081 
	C869.892395,568.658630 870.921875,575.361755 873.554565,577.380127 
	C884.675415,585.906006 899.998962,579.796082 902.559082,567.086365 
	C906.583496,566.605286 910.642151,566.120178 914.208740,565.693848 
	C915.169495,564.148682 915.994751,562.821472 916.820007,561.494263 
	C917.721069,562.644714 918.641602,563.780640 919.519470,564.948547 
	C921.837158,568.031921 923.727417,571.242249 928.192261,572.179688 
	C933.190247,573.229126 937.858948,575.840637 942.855774,576.903320 
	C952.364990,578.925659 961.957703,581.276550 971.603149,581.765381 
	C985.534241,582.471375 998.952881,579.043213 1011.534912,572.823120 
	C1017.439819,569.904053 1020.246094,563.617615 1018.664185,557.226990 
	C1018.047180,554.734253 1017.240662,552.232544 1017.065063,549.697205 
	C1016.623230,543.316467 1010.333069,539.319031 1003.987000,540.883179 
	C997.875793,542.389343 991.546265,543.010315 984.356201,544.023193 
M1032.569214,382.056000 
	C1039.123047,387.525330 1045.893433,392.758789 1052.175293,398.524475 
	C1059.787354,405.511139 1065.260132,414.230621 1070.562988,423.025970 
	C1076.357178,432.636169 1079.094482,443.370789 1081.936646,454.045654 
	C1082.529419,456.271851 1081.325317,459.237061 1084.778564,459.884857 
	C1087.290649,460.356140 1089.863647,460.592255 1092.416138,460.652893 
	C1092.750488,460.660828 1093.538452,458.938629 1093.417969,458.120636 
	C1091.442871,444.711060 1086.215698,432.301361 1079.710205,420.703583 
	C1072.050171,407.047729 1062.328491,394.872528 1050.231201,384.448639 
	C1034.466553,370.864380 1016.929565,360.932678 996.957947,355.657074 
	C986.666504,352.938568 975.989685,350.824493 965.398071,350.325470 
	C953.610168,349.770050 941.620178,350.617157 929.901489,352.206085 
	C915.057800,354.218658 900.891357,359.411621 887.661804,366.291077 
	C873.027771,373.900787 860.025818,384.035675 849.061584,396.513031 
	C845.185547,400.923859 841.179871,405.345215 838.092224,410.297272 
	C832.452393,419.342773 827.271179,428.565399 823.347900,438.684052 
	C819.338135,449.025604 816.266724,459.556427 815.279419,470.294220 
	C813.297607,491.846802 816.632446,512.791992 827.020752,532.192993 
	C829.123596,536.120239 831.023376,540.188721 833.484985,543.879883 
	C835.159546,546.390991 837.649902,548.357971 839.775452,550.568298 
	C840.185791,550.198914 840.596191,549.829590 841.006531,549.460205 
	C840.888062,548.682678 840.955994,547.812195 840.621948,547.142151 
	C837.787292,541.456299 834.552795,535.944519 832.093262,530.104675 
	C829.992981,525.117920 828.527527,519.824829 827.203552,514.561035 
	C825.868042,509.251404 824.454956,503.845154 824.144775,498.420166 
	C823.641846,489.622284 823.341125,480.708191 824.206543,471.967072 
	C825.024170,463.708923 826.967224,455.465637 829.336731,447.489532 
	C831.099854,441.554230 833.982849,435.861786 836.995422,430.408325 
	C841.567017,422.132568 846.018921,413.643311 851.771484,406.212250 
	C856.698975,399.846863 863.255249,394.699341 869.314514,389.262115 
	C881.149536,378.642212 894.892395,371.162689 909.750488,365.744476 
	C921.166992,361.581329 932.937256,359.220154 945.083374,357.743835 
	C959.056335,356.045563 972.449097,358.074158 985.787537,361.105377 
	C994.345215,363.050079 1002.887756,365.681061 1010.901611,369.217896 
	C1018.310242,372.487610 1025.005737,377.373169 1032.569214,382.056000 
M873.375122,710.985535 
	C875.243042,710.643921 877.110962,710.302246 878.292542,710.086182 
	C876.212402,697.511475 874.210510,685.409241 872.186768,673.175293 
	C869.390503,673.175293 866.278442,673.175293 863.479553,673.175293 
	C860.713989,680.817688 858.042358,688.200623 854.840027,697.049988 
	C851.755798,688.330566 849.094177,680.805969 846.419617,673.244568 
	C843.792664,673.244568 841.037415,673.244568 839.189941,673.244568 
	C836.808533,685.533569 834.508667,697.401489 831.998047,710.357178 
	C834.733337,710.193970 837.274353,710.042297 838.846313,709.948486 
	C840.120483,702.511292 841.239014,695.982422 842.537964,688.400574 
	C844.885437,694.873535 846.828125,700.556091 849.037842,706.132812 
	C849.737549,707.898804 851.150269,709.382263 852.236694,710.994995 
	C854.109741,709.436157 856.766602,708.245605 857.705505,706.247681 
	C860.280518,700.767944 862.133545,694.948975 864.272400,689.264221 
	C866.255920,695.105164 867.626526,700.824280 867.831665,706.584900 
	C867.966309,710.367981 869.225830,711.296509 873.375122,710.985535 
M1036.244141,672.993591 
	C1030.197266,672.993591 1024.150269,672.993591 1018.598022,672.993591 
	C1018.598022,685.481445 1018.598022,697.285461 1018.598022,709.527771 
	C1018.907715,709.744202 1019.694031,710.771057 1020.474365,710.766479 
	C1029.812866,710.712463 1039.422852,712.403015 1047.465332,705.255859 
	C1053.215942,700.145508 1055.421265,693.505310 1053.003784,685.753174 
	C1050.848877,678.843445 1044.608398,672.871399 1036.244141,672.993591 
M690.973022,676.437866 
	C689.424561,675.619507 687.927551,674.224548 686.318848,674.080933 
	C678.684631,673.399353 671.019836,673.059021 663.178650,672.585876 
	C663.178650,685.930542 663.178650,698.351257 663.178650,711.132568 
	C665.450623,710.765076 667.581665,709.865784 669.490234,710.207886 
	C677.654236,711.670959 684.843079,710.843384 691.693970,705.233643 
	C699.671631,698.701294 700.872742,683.518250 690.973022,676.437866 
M1185.006714,690.540466 
	C1182.665649,687.256531 1180.423950,683.895447 1177.952881,680.712341 
	C1175.873779,678.034119 1173.983398,674.568237 1171.171631,673.280762 
	C1168.374878,672.000122 1164.533813,673.000244 1161.699341,673.000244 
	C1165.975952,685.328796 1163.562744,697.402893 1163.520020,709.764648 
	C1163.860962,709.810913 1164.632080,709.860413 1165.377197,710.026306 
	C1168.663940,710.758423 1171.344238,711.754822 1170.630737,706.074585 
	C1169.819702,699.617554 1170.443237,692.980286 1170.443237,685.931641 
	C1171.802612,687.404358 1173.000977,688.495239 1173.953369,689.769897 
	C1178.632690,696.032471 1183.060547,702.497070 1188.018555,708.527344 
	C1189.215210,709.982666 1192.056519,710.258606 1194.218140,710.621033 
	C1194.731201,710.707092 1196.133057,708.962524 1196.143677,708.048523 
	C1196.277954,696.518372 1196.231812,684.986023 1196.231812,673.249573 
	C1193.321899,673.249573 1190.777588,673.249573 1188.110107,673.249573 
	C1188.499390,680.805054 1188.876099,688.115173 1189.291016,696.168396 
	C1187.680176,693.970154 1186.611938,692.512390 1185.006714,690.540466 
M717.585083,673.010803 
	C715.812927,673.010803 714.040710,673.010803 712.015991,673.010803 
	C712.015991,684.341003 712.077698,695.140686 711.987183,705.939209 
	C711.948242,710.584412 713.020081,711.721619 717.628845,710.913574 
	C719.137451,710.649109 720.570251,709.952026 722.145386,709.416260 
	C722.145386,705.253174 722.145386,701.346436 722.145386,696.435547 
	C723.593567,698.426941 724.490173,699.674011 725.401978,700.909790 
	C726.360474,702.208679 727.420532,703.441345 728.285767,704.798828 
	C733.163452,712.451538 732.712708,711.738464 741.527649,709.167603 
	C739.609741,706.223755 737.782654,703.438232 735.975281,700.640076 
	C734.110107,697.752502 732.264038,694.852600 730.409607,691.958069 
	C731.098816,692.040466 731.787964,692.122864 732.477173,692.205261 
	C733.988220,689.704285 736.210022,687.368286 736.837830,684.662415 
	C737.702942,680.933167 737.237915,676.458435 732.876343,675.136536 
	C728.306213,673.751526 723.342529,673.665100 717.585083,673.010803 
M1213.459839,681.056580 
	C1212.425781,683.502136 1210.962524,685.859375 1210.437500,688.409790 
	C1208.835083,696.194458 1212.231567,707.491394 1223.279663,710.407898 
	C1231.217529,712.503479 1237.645630,709.120483 1244.716675,708.860962 
	C1244.716675,702.720825 1244.716675,696.971252 1244.716675,691.075928 
	C1241.613403,691.075928 1238.800659,691.048279 1235.989746,691.106018 
	C1235.572510,691.114624 1235.163330,691.525696 1235.010498,691.608948 
	C1235.010498,695.060120 1234.798218,698.288940 1235.061401,701.478577 
	C1235.432983,705.983826 1232.999268,706.583496 1229.528320,705.785828 
	C1224.905640,704.723572 1220.603394,699.882324 1220.001709,695.301086 
	C1219.018799,687.817993 1221.474976,679.833679 1226.308228,678.466187 
	C1231.139404,677.099182 1236.560181,676.875061 1240.865112,682.391418 
	C1242.163574,679.684448 1243.227661,677.466187 1244.629883,674.543030 
	C1241.643311,673.702515 1239.297363,672.871399 1236.881348,672.394714 
	C1229.911987,671.019653 1218.863403,672.733337 1213.459839,681.056580 
M956.244995,678.799744 
	C949.890015,669.513794 940.491211,674.118591 932.270752,672.940125 
	C932.270752,685.431458 932.270752,697.330383 932.270752,710.047241 
	C935.257202,710.047241 938.613464,710.047241 941.524902,710.047241 
	C941.524902,704.739624 941.524902,700.390381 941.524902,695.642883 
	C947.900879,701.608276 947.874023,715.476013 961.660889,709.430481 
	C957.848816,703.979187 953.849731,698.260315 949.410645,691.912354 
	C956.948486,690.177002 957.640991,685.131836 956.244995,678.799744 
M909.371765,710.923096 
	C917.548462,710.927734 917.548462,710.927734 916.556580,704.567993 
	C911.711975,704.567993 906.913574,704.567993 902.260071,704.567993 
	C902.260071,700.956909 902.260071,697.552246 902.260071,693.788147 
	C906.035400,693.788147 909.450317,693.788147 913.050842,693.788147 
	C912.952454,691.660339 912.872009,689.921936 912.775635,687.838013 
	C909.005981,687.838013 905.607056,687.838013 902.131104,687.838013 
	C902.131104,684.396851 902.131104,681.332581 902.131104,677.818726 
	C907.164734,678.040649 911.850159,678.247253 916.724487,678.462219 
	C916.724487,676.975037 916.724487,675.103821 916.724487,673.541748 
	C908.125671,673.541748 899.796753,673.541748 891.991882,673.541748 
	C891.991882,679.261963 891.986877,684.438171 891.993164,689.614319 
	C892.000000,695.299194 892.470215,701.033142 891.862305,706.650879 
	C891.489441,710.096741 892.640015,710.914795 895.437622,710.947388 
	C899.758240,710.997742 904.080017,710.948364 909.371765,710.923096 
M771.369385,705.015259 
	C768.952148,705.015259 766.534912,705.015259 764.270447,705.015259 
	C764.270447,700.935059 764.270447,697.536194 764.270447,693.788086 
	C768.372742,693.788086 772.124817,693.788086 775.718140,693.788086 
	C775.718140,691.681335 775.718140,689.940369 775.718140,687.826416 
	C771.682495,687.826416 767.929016,687.826416 764.239502,687.826416 
	C764.239502,684.365540 764.239502,681.291992 764.239502,677.789734 
	C769.231506,678.038269 773.901978,678.270752 778.771973,678.513184 
	C778.771973,676.946594 778.771973,675.188110 778.771973,673.274170 
	C770.515015,673.274170 762.292358,673.274170 753.824036,673.274170 
	C754.228088,678.752319 754.903442,683.943359 754.917358,689.136169 
	C754.933594,695.178467 754.186584,701.223145 754.212952,707.264832 
	C754.218262,708.483093 756.135254,710.661987 757.285400,710.741455 
	C762.747925,711.119141 768.254883,711.070923 773.736755,710.891907 
	C779.487732,710.704163 779.528198,710.500000 778.472046,704.382690 
	C776.401794,704.594116 774.348999,704.803772 771.369385,705.015259 
M791.179199,710.508057 
	C795.303345,711.896851 796.876648,709.350647 797.941833,706.088135 
	C800.795715,697.346802 800.911865,697.263367 809.824158,698.428223 
	C811.322388,709.870056 813.459778,711.643188 822.911072,709.244385 
	C822.911072,708.761841 823.047119,708.221558 822.890930,707.786133 
	C819.822876,699.233276 816.511597,690.761169 813.682678,682.130798 
	C810.635071,672.833374 810.829285,672.765503 801.999451,673.059509 
	C801.715027,673.068909 801.439880,673.356812 801.357849,673.403198 
	C800.985474,675.774109 800.949402,678.107727 800.229736,680.206909 
	C797.636963,687.769836 794.737000,695.227234 792.123962,702.783508 
	C791.327454,705.086731 791.081116,707.580078 791.179199,710.508057 
M1111.948608,709.373230 
	C1115.761230,697.436951 1119.573975,685.500671 1123.495972,673.222168 
	C1120.430786,673.222168 1118.328369,673.222168 1116.641968,673.222168 
	C1114.222778,681.382996 1111.892090,689.245117 1109.561523,697.107239 
	C1109.110352,697.140930 1108.659302,697.174561 1108.208130,697.208191 
	C1105.662109,689.207703 1103.116089,681.207214 1100.575684,673.224609 
	C1097.362671,673.224609 1094.247314,673.224609 1090.345093,673.224609 
	C1091.525391,676.481628 1092.582520,679.282043 1093.557251,682.110901 
	C1096.056763,689.365173 1099.315796,696.478821 1100.752930,703.941040 
	C1101.968018,710.250916 1104.646362,712.169373 1111.948608,709.373230 
M1137.015991,700.356323 
	C1137.015991,703.243652 1137.015991,706.130920 1137.015991,709.824524 
	C1138.956787,710.153198 1141.496460,710.980042 1143.971802,710.818665 
	C1145.049561,710.748413 1146.870361,708.642517 1146.860718,707.473450 
	C1146.789917,698.934631 1146.311768,690.399780 1146.024170,681.861694 
	C1145.927246,678.985107 1146.008789,676.102539 1146.008789,673.284424 
	C1142.727905,673.284424 1139.989624,673.284424 1137.017578,673.284424 
	C1137.017578,682.177368 1137.017578,690.786133 1137.015991,700.356323 
M1067.986694,695.492371 
	C1067.990845,699.655518 1067.908325,703.821106 1068.022339,707.981262 
	C1068.147583,712.546692 1071.737671,710.882629 1073.982544,710.798340 
	C1075.279053,710.749573 1077.603638,709.252380 1077.622314,708.368103 
	C1077.868652,696.737305 1077.786377,685.099426 1077.786377,673.290161 
	C1074.656250,673.290161 1071.439453,673.290161 1067.986450,673.290161 
	C1067.986450,680.552368 1067.986450,687.523376 1067.986694,695.492371 
M879.986267,508.717926 
	C874.092896,503.683807 870.740112,503.177185 866.790710,506.718994 
	C860.879700,512.020020 861.057068,515.539856 864.310059,520.564453 
	C866.883911,524.540039 873.438843,525.878174 877.142639,523.342224 
	C882.341980,519.782288 883.544128,514.141541 879.986267,508.717926 
M853.616150,535.079529 
	C851.131592,538.874146 851.237549,545.504639 854.147461,546.443298 
	C856.261719,547.125427 859.368652,547.155701 861.073853,546.027405 
	C862.936768,544.794739 864.852905,541.743164 864.596680,539.762573 
	C864.359253,537.927979 861.481140,536.092163 859.384460,534.968872 
	C858.114624,534.288574 856.119324,534.962341 853.616150,535.079529 
M993.039551,707.645386 
	C992.368652,705.608948 992.270569,702.692505 990.868286,701.779785 
	C989.421143,700.837891 986.284546,701.199402 984.697083,702.233704 
	C983.689941,702.889954 983.485474,706.079102 984.105103,707.671692 
	C985.591064,711.491089 988.312622,711.570557 993.039551,707.645386 
z"/>
<path fill="#FCFBFC" opacity="1.000000" stroke="none" 
	d="
M1096.074097,475.982422 
	C1096.040039,482.977661 1095.831299,489.977295 1096.007690,496.967224 
	C1096.399292,512.500793 1092.537354,527.265137 1087.573608,541.706543 
	C1082.143555,557.505066 1073.272339,571.453979 1063.153687,584.741638 
	C1054.890381,595.592773 1044.736206,604.434692 1033.920288,612.234680 
	C1020.115845,622.190125 1004.550781,629.301392 987.939819,633.410156 
	C980.098145,635.349915 971.924744,636.110840 963.853027,636.921875 
	C950.132019,638.300598 936.560486,636.682434 923.115601,633.936340 
	C919.983337,633.296509 916.746765,632.660339 913.879150,631.330383 
	C906.416870,627.869324 899.766724,629.478271 892.544373,632.674683 
	C876.961060,639.571350 860.874451,644.999573 843.469055,645.046692 
	C838.218079,645.060852 832.946289,646.051758 827.729980,645.763794 
	C825.759033,645.654968 822.672424,643.443542 822.336060,641.746277 
	C821.925537,639.674744 823.778931,637.661682 826.900574,636.826111 
	C839.623047,633.420349 851.275330,627.743713 861.480103,619.190063 
	C869.355042,612.589294 877.801453,606.652222 885.478271,599.839233 
	C891.156799,594.799805 896.190796,588.986267 901.184692,583.233459 
	C910.538757,572.458008 920.269287,574.032959 930.267212,577.748901 
	C943.557007,582.688354 957.007019,585.922607 971.418457,586.315979 
	C988.002563,586.768738 1003.529236,583.712158 1018.069336,576.267761 
	C1028.282837,571.038391 1037.854858,564.607178 1045.688599,555.917053 
	C1049.666260,551.504517 1054.394897,547.739502 1058.140381,543.155823 
	C1061.278198,539.315796 1063.633057,534.796875 1066.071777,530.431641 
	C1075.404053,513.727112 1082.226685,496.249573 1082.489014,476.072296 
	C1087.305786,475.619904 1091.689941,475.801147 1096.074097,475.982422 
M895.991943,600.496277 
	C893.461243,603.098877 890.930542,605.701477 888.399841,608.304077 
	C888.811584,608.732056 889.223267,609.160095 889.635010,609.588074 
	C893.753174,605.761658 898.346436,602.325195 901.881042,598.019714 
	C907.526794,591.142578 916.345215,587.696838 924.709167,590.242310 
	C931.614685,592.343811 938.357361,595.219543 945.398804,596.575562 
	C954.502136,598.328674 963.811218,599.235413 973.074768,599.799133 
	C975.820312,599.966187 980.487610,600.654297 981.123657,595.208435 
	C980.092346,595.118958 979.438843,594.989319 978.792053,595.016785 
	C959.271362,595.844055 941.003418,590.652039 923.071045,583.634583 
	C918.805420,581.965271 914.004883,582.138062 910.591492,585.169373 
	C905.510498,589.681763 901.155884,595.012024 895.991943,600.496277 
M1042.025024,570.466797 
	C1030.196289,578.807312 1018.081055,586.545715 1003.783875,590.166809 
	C1002.455444,590.503235 1001.608643,592.741150 1000.538147,594.096191 
	C1021.523254,590.367249 1051.169312,571.132874 1051.356812,562.572876 
	C1048.360474,565.091492 1045.466064,567.524414 1042.025024,570.466797 
M993.995911,613.189514 
	C993.672607,607.641235 993.458557,602.082458 992.929749,596.553833 
	C992.829468,595.505432 991.481506,594.576355 990.709229,593.592163 
	C990.112793,594.688171 988.944580,595.820496 989.011353,596.874451 
	C989.506714,604.687317 990.420227,612.475525 990.835754,620.290894 
	C991.033203,624.003479 992.792175,623.140381 995.456970,622.492981 
	C994.950500,619.532593 994.488037,616.829468 993.995911,613.189514 
M888.016174,610.318115 
	C887.379211,610.332886 886.555542,610.104431 886.147705,610.417542 
	C885.484253,610.926941 885.092651,611.790527 884.586365,612.504700 
	C884.838867,612.770691 885.091309,613.036743 885.343811,613.302734 
	C886.219543,612.598389 887.095215,611.894043 888.016174,610.318115 
M882.795959,613.839478 
	C882.719543,614.147583 882.643066,614.455627 882.566589,614.763733 
	C882.954285,614.733276 883.341919,614.702759 883.729614,614.672241 
	C883.676453,614.303406 883.623352,613.934570 882.795959,613.839478 
z"/>
<path fill="#F9F9F9" opacity="1.000000" stroke="none" 
	d="
M984.834473,544.021667 
	C991.546265,543.010315 997.875793,542.389343 1003.987000,540.883179 
	C1010.333069,539.319031 1016.623230,543.316467 1017.065063,549.697205 
	C1017.240662,552.232544 1018.047180,554.734253 1018.664185,557.226990 
	C1020.246094,563.617615 1017.439819,569.904053 1011.534912,572.823120 
	C998.952881,579.043213 985.534241,582.471375 971.603149,581.765381 
	C961.957703,581.276550 952.364990,578.925659 942.855774,576.903320 
	C937.858948,575.840637 933.190247,573.229126 928.192261,572.179688 
	C923.727417,571.242249 921.837158,568.031921 919.519470,564.948547 
	C918.641602,563.780640 917.721069,562.644714 916.820007,561.494263 
	C915.994751,562.821472 915.169495,564.148682 914.208740,565.693848 
	C910.642151,566.120178 906.583496,566.605286 902.559082,567.086365 
	C899.998962,579.796082 884.675415,585.906006 873.554565,577.380127 
	C870.921875,575.361755 869.892395,568.658630 863.906616,573.033081 
	C863.906616,566.490601 863.906616,560.480469 863.906616,556.082092 
	C867.824036,553.602722 870.977661,552.156555 873.437256,549.940125 
	C879.262451,544.690796 892.112732,543.731689 898.041870,552.318481 
	C899.511169,554.446289 900.661011,556.867371 902.441040,558.678650 
	C903.387085,559.641235 905.370605,559.919983 906.882568,559.911682 
	C909.128906,559.899414 911.372375,559.359009 912.853516,559.150757 
	C913.916260,554.591370 914.692261,550.528442 915.893372,546.595459 
	C916.216675,545.536865 917.907043,544.080933 918.840759,544.169556 
	C922.245483,544.492371 923.688660,542.854492 925.139465,540.065735 
	C927.692871,535.157288 934.661621,533.401367 941.167297,536.100830 
	C955.023254,541.850220 969.428833,544.278687 984.834473,544.021667 
M983.473511,558.020630 
	C993.050232,557.869934 1002.796875,558.285278 1010.001526,549.082642 
	C993.457458,548.765564 976.866455,553.605042 960.435547,548.354004 
	C959.781128,551.734680 959.310974,554.163452 958.778503,556.914368 
	C967.044006,557.301086 974.765137,557.662292 983.473511,558.020630 
M996.862549,567.657776 
	C998.328735,567.326782 999.785950,566.947815 1001.262512,566.673157 
	C1007.292542,565.551514 1011.174683,561.622314 1010.538513,557.085815 
	C1002.533447,558.630859 994.530579,560.175415 986.920166,561.644287 
	C987.738892,562.552979 988.686951,564.091919 990.053528,565.003357 
	C991.912048,566.242859 994.090271,567.002991 996.862549,567.657776 
M875.518799,558.000305 
	C873.741028,558.000305 871.963257,558.000305 870.218628,558.000305 
	C869.679504,568.001282 869.679504,568.001221 878.964417,567.991028 
	C879.794434,567.990112 880.624512,567.984375 881.454468,567.991150 
	C884.828247,568.018555 886.072815,566.220459 886.087830,562.995911 
	C886.103088,559.732422 884.804871,557.980652 881.437622,558.000183 
	C879.777649,558.009827 878.117493,558.001343 875.518799,558.000305 
M963.609253,566.099915 
	C965.402161,566.725098 967.184143,567.384155 968.989990,567.969360 
	C975.837646,570.188660 977.889160,569.150879 980.559937,562.227722 
	C973.104492,561.355164 965.627686,560.480103 958.175049,559.607849 
	C956.834473,564.025391 960.839844,564.041809 963.609253,566.099915 
M952.978943,550.109070 
	C952.843811,549.884644 952.723328,549.647827 952.556396,549.450317 
	C952.533386,549.423096 952.175293,549.564270 952.148193,549.671875 
	C950.424561,556.515259 948.719177,563.363342 947.012146,570.210938 
	C947.634705,570.353333 948.257263,570.495728 948.879822,570.638123 
	C950.251770,564.064636 951.623718,557.491150 952.978943,550.109070 
z"/>
<path fill="#F8F8F8" opacity="1.000000" stroke="none" 
	d="
M1032.292236,381.801544 
	C1025.005737,377.373169 1018.310242,372.487610 1010.901611,369.217896 
	C1002.887756,365.681061 994.345215,363.050079 985.787537,361.105377 
	C972.449097,358.074158 959.056335,356.045563 945.083374,357.743835 
	C932.937256,359.220154 921.166992,361.581329 909.750488,365.744476 
	C894.892395,371.162689 881.149536,378.642212 869.314514,389.262115 
	C863.255249,394.699341 856.698975,399.846863 851.771484,406.212250 
	C846.018921,413.643311 841.567017,422.132568 836.995422,430.408325 
	C833.982849,435.861786 831.099854,441.554230 829.336731,447.489532 
	C826.967224,455.465637 825.024170,463.708923 824.206543,471.967072 
	C823.341125,480.708191 823.641846,489.622284 824.144775,498.420166 
	C824.454956,503.845154 825.868042,509.251404 827.203552,514.561035 
	C828.527527,519.824829 829.992981,525.117920 832.093262,530.104675 
	C834.552795,535.944519 837.787292,541.456299 840.621948,547.142151 
	C840.955994,547.812195 840.888062,548.682678 841.006531,549.460205 
	C840.596191,549.829590 840.185791,550.198914 839.775452,550.568298 
	C837.649902,548.357971 835.159546,546.390991 833.484985,543.879883 
	C831.023376,540.188721 829.123596,536.120239 827.020752,532.192993 
	C816.632446,512.791992 813.297607,491.846802 815.279419,470.294220 
	C816.266724,459.556427 819.338135,449.025604 823.347900,438.684052 
	C827.271179,428.565399 832.452393,419.342773 838.092224,410.297272 
	C841.179871,405.345215 845.185547,400.923859 849.061584,396.513031 
	C860.025818,384.035675 873.027771,373.900787 887.661804,366.291077 
	C900.891357,359.411621 915.057800,354.218658 929.901489,352.206085 
	C941.620178,350.617157 953.610168,349.770050 965.398071,350.325470 
	C975.989685,350.824493 986.666504,352.938568 996.957947,355.657074 
	C1016.929565,360.932678 1034.466553,370.864380 1050.231201,384.448639 
	C1062.328491,394.872528 1072.050171,407.047729 1079.710205,420.703583 
	C1086.215698,432.301361 1091.442871,444.711060 1093.417969,458.120636 
	C1093.538452,458.938629 1092.750488,460.660828 1092.416138,460.652893 
	C1089.863647,460.592255 1087.290649,460.356140 1084.778564,459.884857 
	C1081.325317,459.237061 1082.529419,456.271851 1081.936646,454.045654 
	C1079.094482,443.370789 1076.357178,432.636169 1070.562988,423.025970 
	C1065.260132,414.230621 1059.787354,405.511139 1052.175293,398.524475 
	C1045.893433,392.758789 1039.123047,387.525330 1032.292236,381.801544 
z"/>
<path fill="#7AD6F4" opacity="1.000000" stroke="none" 
	d="
M1096.464233,475.991577 
	C1091.689941,475.801147 1087.305786,475.619904 1082.559082,475.599060 
	C1077.469482,476.327423 1072.409424,476.008301 1068.079468,477.634064 
	C1056.361572,482.033813 1044.850708,487.032806 1033.448120,492.213348 
	C1017.659973,499.386414 1001.438904,504.606964 983.890259,502.861145 
	C975.602112,502.036621 967.557190,499.731293 960.856445,494.032043 
	C954.109253,488.293427 954.076111,476.413269 961.054443,470.950928 
	C962.539429,469.788544 963.853027,468.407166 965.912659,466.513306 
	C956.606934,464.457123 948.362976,463.826477 939.578796,464.689056 
	C927.959106,465.830078 918.496399,471.532776 908.462158,476.226227 
	C899.994568,480.186890 891.935242,485.478149 883.074585,487.998627 
	C875.756226,490.080383 867.531433,489.013672 859.705872,489.263550 
	C852.384216,489.497314 845.624939,487.408386 839.228271,484.004333 
	C837.096558,482.869934 834.795593,481.888000 833.010376,480.333130 
	C832.018921,479.469635 831.931702,477.567963 831.437012,476.134155 
	C832.937561,475.904022 834.563110,475.183929 835.916809,475.529358 
	C841.518005,476.958466 846.944153,479.238739 852.605530,480.232239 
	C864.128845,482.254272 875.711731,482.053436 886.460388,476.828461 
	C893.816589,473.252594 900.706177,468.721771 907.832275,464.666840 
	C923.532532,455.732941 940.463318,451.096771 958.400513,453.320129 
	C967.990723,454.508881 977.431580,458.030518 983.922058,466.367462 
	C985.813599,468.797180 985.240967,469.849091 982.556335,471.093414 
	C978.035400,473.188843 973.565125,475.509766 969.437561,478.278381 
	C967.856934,479.338562 967.275513,481.888275 966.133301,483.949524 
	C976.962830,490.457764 987.515320,491.466309 999.129272,490.361603 
	C1012.661926,489.074371 1024.194824,483.505371 1035.901123,477.619507 
	C1050.559814,470.249176 1065.772949,464.477814 1082.539307,465.102661 
	C1094.229980,465.538269 1105.498779,467.792664 1114.650269,475.958893 
	C1116.057617,477.214752 1117.603027,478.519287 1118.443726,480.134735 
	C1118.994019,481.192230 1118.389648,482.850586 1118.302490,484.239807 
	C1117.009644,484.128021 1115.580811,484.334869 1114.446899,483.851013 
	C1108.541382,481.331055 1102.710938,478.635315 1096.464233,475.991577 
z"/>
<path fill="#F8F8F8" opacity="1.000000" stroke="none" 
	d="
M872.933167,710.942017 
	C869.225830,711.296509 867.966309,710.367981 867.831665,706.584900 
	C867.626526,700.824280 866.255920,695.105164 864.272400,689.264221 
	C862.133545,694.948975 860.280518,700.767944 857.705505,706.247681 
	C856.766602,708.245605 854.109741,709.436157 852.236694,710.994995 
	C851.150269,709.382263 849.737549,707.898804 849.037842,706.132812 
	C846.828125,700.556091 844.885437,694.873535 842.537964,688.400574 
	C841.239014,695.982422 840.120483,702.511292 838.846313,709.948486 
	C837.274353,710.042297 834.733337,710.193970 831.998047,710.357178 
	C834.508667,697.401489 836.808533,685.533569 839.189941,673.244568 
	C841.037415,673.244568 843.792664,673.244568 846.419617,673.244568 
	C849.094177,680.805969 851.755798,688.330566 854.840027,697.049988 
	C858.042358,688.200623 860.713989,680.817688 863.479553,673.175293 
	C866.278442,673.175293 869.390503,673.175293 872.186768,673.175293 
	C874.210510,685.409241 876.212402,697.511475 878.292542,710.086182 
	C877.110962,710.302246 875.243042,710.643921 872.933167,710.942017 
z"/>
<path fill="#F6F6F6" opacity="1.000000" stroke="none" 
	d="
M1036.708496,672.991577 
	C1044.608398,672.871399 1050.848877,678.843445 1053.003784,685.753174 
	C1055.421265,693.505310 1053.215942,700.145508 1047.465332,705.255859 
	C1039.422852,712.403015 1029.812866,710.712463 1020.474365,710.766479 
	C1019.694031,710.771057 1018.907715,709.744202 1018.598022,709.527771 
	C1018.598022,697.285461 1018.598022,685.481445 1018.598022,672.993591 
	C1024.150269,672.993591 1030.197266,672.993591 1036.708496,672.991577 
M1040.023193,681.513794 
	C1038.727783,680.552124 1037.502197,679.473328 1036.122803,678.652771 
	C1033.118164,676.865356 1029.129517,677.927551 1029.063354,680.658813 
	C1028.867188,688.744995 1028.993164,696.838928 1028.993164,704.900879 
	C1037.498413,705.099365 1040.339600,702.803711 1043.106445,695.753479 
	C1045.213135,690.385376 1042.498535,686.411743 1040.023193,681.513794 
z"/>
<path fill="#F8F8F8" opacity="1.000000" stroke="none" 
	d="
M691.241455,676.713867 
	C700.872742,683.518250 699.671631,698.701294 691.693970,705.233643 
	C684.843079,710.843384 677.654236,711.670959 669.490234,710.207886 
	C667.581665,709.865784 665.450623,710.765076 663.178650,711.132568 
	C663.178650,698.351257 663.178650,685.930542 663.178650,672.585876 
	C671.019836,673.059021 678.684631,673.399353 686.318848,674.080933 
	C687.927551,674.224548 689.424561,675.619507 691.241455,676.713867 
M680.703003,678.187378 
	C677.220032,677.937317 672.906738,676.660217 672.512329,682.072510 
	C672.007812,688.996643 672.103882,695.968628 672.113708,702.919739 
	C672.114685,703.607117 673.190796,704.621643 673.981995,704.923889 
	C677.944641,706.438049 684.269348,703.214844 686.072388,699.204407 
	C689.401672,691.798950 689.471680,686.115784 680.703003,678.187378 
z"/>
<path fill="#F7F7F6" opacity="1.000000" stroke="none" 
	d="
M1185.275146,690.797546 
	C1186.611938,692.512390 1187.680176,693.970154 1189.291016,696.168396 
	C1188.876099,688.115173 1188.499390,680.805054 1188.110107,673.249573 
	C1190.777588,673.249573 1193.321899,673.249573 1196.231812,673.249573 
	C1196.231812,684.986023 1196.277954,696.518372 1196.143677,708.048523 
	C1196.133057,708.962524 1194.731201,710.707092 1194.218140,710.621033 
	C1192.056519,710.258606 1189.215210,709.982666 1188.018555,708.527344 
	C1183.060547,702.497070 1178.632690,696.032471 1173.953369,689.769897 
	C1173.000977,688.495239 1171.802612,687.404358 1170.443237,685.931641 
	C1170.443237,692.980286 1169.819702,699.617554 1170.630737,706.074585 
	C1171.344238,711.754822 1168.663940,710.758423 1165.377197,710.026306 
	C1164.632080,709.860413 1163.860962,709.810913 1163.520020,709.764648 
	C1163.562744,697.402893 1165.975952,685.328796 1161.699341,673.000244 
	C1164.533813,673.000244 1168.374878,672.000122 1171.171631,673.280762 
	C1173.983398,674.568237 1175.873779,678.034119 1177.952881,680.712341 
	C1180.423950,683.895447 1182.665649,687.256531 1185.275146,690.797546 
z"/>
<path fill="#F8F8F8" opacity="1.000000" stroke="none" 
	d="
M718.067993,673.010986 
	C723.342529,673.665100 728.306213,673.751526 732.876343,675.136536 
	C737.237915,676.458435 737.702942,680.933167 736.837830,684.662415 
	C736.210022,687.368286 733.988220,689.704285 732.477173,692.205261 
	C731.787964,692.122864 731.098816,692.040466 730.409607,691.958069 
	C732.264038,694.852600 734.110107,697.752502 735.975281,700.640076 
	C737.782654,703.438232 739.609741,706.223755 741.527649,709.167603 
	C732.712708,711.738464 733.163452,712.451538 728.285767,704.798828 
	C727.420532,703.441345 726.360474,702.208679 725.401978,700.909790 
	C724.490173,699.674011 723.593567,698.426941 722.145386,696.435547 
	C722.145386,701.346436 722.145386,705.253174 722.145386,709.416260 
	C720.570251,709.952026 719.137451,710.649109 717.628845,710.913574 
	C713.020081,711.721619 711.948242,710.584412 711.987183,705.939209 
	C712.077698,695.140686 712.015991,684.341003 712.015991,673.010803 
	C714.040710,673.010803 715.812927,673.010803 718.067993,673.010986 
M727.992676,684.248230 
	C728.173767,680.286926 727.840210,676.823425 722.301331,678.302368 
	C722.301331,682.212036 722.301331,686.035034 722.301331,689.857971 
	C722.695679,690.073853 723.090027,690.289734 723.484314,690.505615 
	C724.999451,688.701965 726.514587,686.898376 727.992676,684.248230 
z"/>
<path fill="#F7F7F6" opacity="1.000000" stroke="none" 
	d="
M1213.711792,680.765015 
	C1218.863403,672.733337 1229.911987,671.019653 1236.881348,672.394714 
	C1239.297363,672.871399 1241.643311,673.702515 1244.629883,674.543030 
	C1243.227661,677.466187 1242.163574,679.684448 1240.865112,682.391418 
	C1236.560181,676.875061 1231.139404,677.099182 1226.308228,678.466187 
	C1221.474976,679.833679 1219.018799,687.817993 1220.001709,695.301086 
	C1220.603394,699.882324 1224.905640,704.723572 1229.528320,705.785828 
	C1232.999268,706.583496 1235.432983,705.983826 1235.061401,701.478577 
	C1234.798218,698.288940 1235.010498,695.060120 1235.010498,691.608948 
	C1235.163330,691.525696 1235.572510,691.114624 1235.989746,691.106018 
	C1238.800659,691.048279 1241.613403,691.075928 1244.716675,691.075928 
	C1244.716675,696.971252 1244.716675,702.720825 1244.716675,708.860962 
	C1237.645630,709.120483 1231.217529,712.503479 1223.279663,710.407898 
	C1212.231567,707.491394 1208.835083,696.194458 1210.437500,688.409790 
	C1210.962524,685.859375 1212.425781,683.502136 1213.711792,680.765015 
z"/>
<path fill="#F9F9F9" opacity="1.000000" stroke="none" 
	d="
M956.550781,679.068604 
	C957.640991,685.131836 956.948486,690.177002 949.410645,691.912354 
	C953.849731,698.260315 957.848816,703.979187 961.660889,709.430481 
	C947.874023,715.476013 947.900879,701.608276 941.524902,695.642883 
	C941.524902,700.390381 941.524902,704.739624 941.524902,710.047241 
	C938.613464,710.047241 935.257202,710.047241 932.270752,710.047241 
	C932.270752,697.330383 932.270752,685.431458 932.270752,672.940125 
	C940.491211,674.118591 949.890015,669.513794 956.550781,679.068604 
M940.991638,684.427612 
	C940.991638,686.221863 940.991638,688.016174 940.991638,689.856262 
	C946.963440,689.046753 948.694580,687.024231 948.001648,681.949646 
	C947.395752,677.512817 944.409790,677.786560 940.991272,678.198059 
	C940.991272,680.216736 940.991272,681.861084 940.991638,684.427612 
z"/>
<path fill="#F7F7F6" opacity="1.000000" stroke="none" 
	d="
M908.886536,710.932190 
	C904.080017,710.948364 899.758240,710.997742 895.437622,710.947388 
	C892.640015,710.914795 891.489441,710.096741 891.862305,706.650879 
	C892.470215,701.033142 892.000000,695.299194 891.993164,689.614319 
	C891.986877,684.438171 891.991882,679.261963 891.991882,673.541748 
	C899.796753,673.541748 908.125671,673.541748 916.724487,673.541748 
	C916.724487,675.103821 916.724487,676.975037 916.724487,678.462219 
	C911.850159,678.247253 907.164734,678.040649 902.131104,677.818726 
	C902.131104,681.332581 902.131104,684.396851 902.131104,687.838013 
	C905.607056,687.838013 909.005981,687.838013 912.775635,687.838013 
	C912.872009,689.921936 912.952454,691.660339 913.050842,693.788147 
	C909.450317,693.788147 906.035400,693.788147 902.260071,693.788147 
	C902.260071,697.552246 902.260071,700.956909 902.260071,704.567993 
	C906.913574,704.567993 911.711975,704.567993 916.556580,704.567993 
	C917.548462,710.927734 917.548462,710.927734 908.886536,710.932190 
z"/>
<path fill="#F8F8F8" opacity="1.000000" stroke="none" 
	d="
M771.832825,705.014343 
	C774.348999,704.803772 776.401794,704.594116 778.472046,704.382690 
	C779.528198,710.500000 779.487732,710.704163 773.736755,710.891907 
	C768.254883,711.070923 762.747925,711.119141 757.285400,710.741455 
	C756.135254,710.661987 754.218262,708.483093 754.212952,707.264832 
	C754.186584,701.223145 754.933594,695.178467 754.917358,689.136169 
	C754.903442,683.943359 754.228088,678.752319 753.824036,673.274170 
	C762.292358,673.274170 770.515015,673.274170 778.771973,673.274170 
	C778.771973,675.188110 778.771973,676.946594 778.771973,678.513184 
	C773.901978,678.270752 769.231506,678.038269 764.239502,677.789734 
	C764.239502,681.291992 764.239502,684.365540 764.239502,687.826416 
	C767.929016,687.826416 771.682495,687.826416 775.718140,687.826416 
	C775.718140,689.940369 775.718140,691.681335 775.718140,693.788086 
	C772.124817,693.788086 768.372742,693.788086 764.270447,693.788086 
	C764.270447,697.536194 764.270447,700.935059 764.270447,705.015259 
	C766.534912,705.015259 768.952148,705.015259 771.832825,705.014343 
z"/>
<path fill="#F9F9F9" opacity="1.000000" stroke="none" 
	d="
M790.880981,710.247192 
	C791.081116,707.580078 791.327454,705.086731 792.123962,702.783508 
	C794.737000,695.227234 797.636963,687.769836 800.229736,680.206909 
	C800.949402,678.107727 800.985474,675.774109 801.357849,673.403198 
	C801.439880,673.356812 801.715027,673.068909 801.999451,673.059509 
	C810.829285,672.765503 810.635071,672.833374 813.682678,682.130798 
	C816.511597,690.761169 819.822876,699.233276 822.890930,707.786133 
	C823.047119,708.221558 822.911072,708.761841 822.911072,709.244385 
	C813.459778,711.643188 811.322388,709.870056 809.824158,698.428223 
	C800.911865,697.263367 800.795715,697.346802 797.941833,706.088135 
	C796.876648,709.350647 795.303345,711.896851 790.880981,710.247192 
M804.063843,686.541565 
	C803.160706,688.936768 802.257629,691.331970 801.138489,694.300171 
	C803.562805,693.825928 805.718872,693.404114 807.994385,692.958984 
	C806.771240,690.390930 805.738464,688.222656 804.063843,686.541565 
z"/>
<path fill="#F8F8F8" opacity="1.000000" stroke="none" 
	d="
M1111.687866,709.702148 
	C1104.646362,712.169373 1101.968018,710.250916 1100.752930,703.941040 
	C1099.315796,696.478821 1096.056763,689.365173 1093.557251,682.110901 
	C1092.582520,679.282043 1091.525391,676.481628 1090.345093,673.224609 
	C1094.247314,673.224609 1097.362671,673.224609 1100.575684,673.224609 
	C1103.116089,681.207214 1105.662109,689.207703 1108.208130,697.208191 
	C1108.659302,697.174561 1109.110352,697.140930 1109.561523,697.107239 
	C1111.892090,689.245117 1114.222778,681.382996 1116.641968,673.222168 
	C1118.328369,673.222168 1120.430786,673.222168 1123.495972,673.222168 
	C1119.573975,685.500671 1115.761230,697.436951 1111.687866,709.702148 
z"/>
<path fill="#F8F8F8" opacity="1.000000" stroke="none" 
	d="
M1137.016846,699.875610 
	C1137.017578,690.786133 1137.017578,682.177368 1137.017578,673.284424 
	C1139.989624,673.284424 1142.727905,673.284424 1146.008789,673.284424 
	C1146.008789,676.102539 1145.927246,678.985107 1146.024170,681.861694 
	C1146.311768,690.399780 1146.789917,698.934631 1146.860718,707.473450 
	C1146.870361,708.642517 1145.049561,710.748413 1143.971802,710.818665 
	C1141.496460,710.980042 1138.956787,710.153198 1137.015991,709.824524 
	C1137.015991,706.130920 1137.015991,703.243652 1137.016846,699.875610 
z"/>
<path fill="#F7F7F6" opacity="1.000000" stroke="none" 
	d="
M1067.986572,694.993408 
	C1067.986450,687.523376 1067.986450,680.552368 1067.986450,673.290161 
	C1071.439453,673.290161 1074.656250,673.290161 1077.786377,673.290161 
	C1077.786377,685.099426 1077.868652,696.737305 1077.622314,708.368103 
	C1077.603638,709.252380 1075.279053,710.749573 1073.982544,710.798340 
	C1071.737671,710.882629 1068.147583,712.546692 1068.022339,707.981262 
	C1067.908325,703.821106 1067.990845,699.655518 1067.986572,694.993408 
z"/>
<path fill="#71D3F4" opacity="1.000000" stroke="none" 
	d="
M880.038574,509.113220 
	C883.544128,514.141541 882.341980,519.782288 877.142639,523.342224 
	C873.438843,525.878174 866.883911,524.540039 864.310059,520.564453 
	C861.057068,515.539856 860.879700,512.020020 866.790710,506.718994 
	C870.740112,503.177185 874.092896,503.683807 880.038574,509.113220 
z"/>
<path fill="#6BD2F4" opacity="1.000000" stroke="none" 
	d="
M854.033081,535.053650 
	C856.119324,534.962341 858.114624,534.288574 859.384460,534.968872 
	C861.481140,536.092163 864.359253,537.927979 864.596680,539.762573 
	C864.852905,541.743164 862.936768,544.794739 861.073853,546.027405 
	C859.368652,547.155701 856.261719,547.125427 854.147461,546.443298 
	C851.237549,545.504639 851.131592,538.874146 854.033081,535.053650 
z"/>
<path fill="#FCFBFC" opacity="1.000000" stroke="none" 
	d="
M993.002319,708.033630 
	C988.312622,711.570557 985.591064,711.491089 984.105103,707.671692 
	C983.485474,706.079102 983.689941,702.889954 984.697083,702.233704 
	C986.284546,701.199402 989.421143,700.837891 990.868286,701.779785 
	C992.270569,702.692505 992.368652,705.608948 993.002319,708.033630 
z"/>
<path fill="#000000" opacity="1.000000" stroke="none" 
	d="
M896.242065,600.245239 
	C901.155884,595.012024 905.510498,589.681763 910.591492,585.169373 
	C914.004883,582.138062 918.805420,581.965271 923.071045,583.634583 
	C941.003418,590.652039 959.271362,595.844055 978.792053,595.016785 
	C979.438843,594.989319 980.092346,595.118958 981.123657,595.208435 
	C980.487610,600.654297 975.820312,599.966187 973.074768,599.799133 
	C963.811218,599.235413 954.502136,598.328674 945.398804,596.575562 
	C938.357361,595.219543 931.614685,592.343811 924.709167,590.242310 
	C916.345215,587.696838 907.526794,591.142578 901.881042,598.019714 
	C898.346436,602.325195 893.753174,605.761658 889.635010,609.588074 
	C889.223267,609.160095 888.811584,608.732056 888.399841,608.304077 
	C890.930542,605.701477 893.461243,603.098877 896.242065,600.245239 
z"/>
<path fill="#000000" opacity="1.000000" stroke="none" 
	d="
M1042.298340,570.212036 
	C1045.466064,567.524414 1048.360474,565.091492 1051.356812,562.572876 
	C1051.169312,571.132874 1021.523254,590.367249 1000.538147,594.096191 
	C1001.608643,592.741150 1002.455444,590.503235 1003.783875,590.166809 
	C1018.081055,586.545715 1030.196289,578.807312 1042.298340,570.212036 
z"/>
<path fill="#000000" opacity="1.000000" stroke="none" 
	d="
M994.010742,613.657959 
	C994.488037,616.829468 994.950500,619.532593 995.456970,622.492981 
	C992.792175,623.140381 991.033203,624.003479 990.835754,620.290894 
	C990.420227,612.475525 989.506714,604.687317 989.011353,596.874451 
	C988.944580,595.820496 990.112793,594.688171 990.709229,593.592163 
	C991.481506,594.576355 992.829468,595.505432 992.929749,596.553833 
	C993.458557,602.082458 993.672607,607.641235 994.010742,613.657959 
z"/>
<path fill="#000000" opacity="1.000000" stroke="none" 
	d="
M887.993530,610.753906 
	C887.095215,611.894043 886.219543,612.598389 885.343811,613.302734 
	C885.091309,613.036743 884.838867,612.770691 884.586365,612.504700 
	C885.092651,611.790527 885.484253,610.926941 886.147705,610.417542 
	C886.555542,610.104431 887.379211,610.332886 887.993530,610.753906 
z"/>
<path fill="#000000" opacity="1.000000" stroke="none" 
	d="
M883.183105,613.702637 
	C883.623352,613.934570 883.676453,614.303406 883.729614,614.672241 
	C883.341919,614.702759 882.954285,614.733276 882.566589,614.763733 
	C882.643066,614.455627 882.719543,614.147583 883.183105,613.702637 
z"/>
<path fill="#000000" opacity="1.000000" stroke="none" 
	d="
M982.979919,558.022095 
	C974.765137,557.662292 967.044006,557.301086 958.778503,556.914368 
	C959.310974,554.163452 959.781128,551.734680 960.435547,548.354004 
	C976.866455,553.605042 993.457458,548.765564 1010.001526,549.082642 
	C1002.796875,558.285278 993.050232,557.869934 982.979919,558.022095 
z"/>
<path fill="#000000" opacity="1.000000" stroke="none" 
	d="
M996.496948,567.813232 
	C994.090271,567.002991 991.912048,566.242859 990.053528,565.003357 
	C988.686951,564.091919 987.738892,562.552979 986.920166,561.644287 
	C994.530579,560.175415 1002.533447,558.630859 1010.538513,557.085815 
	C1011.174683,561.622314 1007.292542,565.551514 1001.262512,566.673157 
	C999.785950,566.947815 998.328735,567.326782 996.496948,567.813232 
z"/>
<path fill="#000000" opacity="1.000000" stroke="none" 
	d="
M875.988159,558.000671 
	C878.117493,558.001343 879.777649,558.009827 881.437622,558.000183 
	C884.804871,557.980652 886.103088,559.732422 886.087830,562.995911 
	C886.072815,566.220459 884.828247,568.018555 881.454468,567.991150 
	C880.624512,567.984375 879.794434,567.990112 878.964417,567.991028 
	C869.679504,568.001221 869.679504,568.001282 870.218628,558.000305 
	C871.963257,558.000305 873.741028,558.000305 875.988159,558.000671 
z"/>
<path fill="#000000" opacity="1.000000" stroke="none" 
	d="
M963.320740,565.826050 
	C960.839844,564.041809 956.834473,564.025391 958.175049,559.607849 
	C965.627686,560.480103 973.104492,561.355164 980.559937,562.227722 
	C977.889160,569.150879 975.837646,570.188660 968.989990,567.969360 
	C967.184143,567.384155 965.402161,566.725098 963.320740,565.826050 
z"/>
<path fill="#000000" opacity="1.000000" stroke="none" 
	d="
M952.987305,550.513367 
	C951.623718,557.491150 950.251770,564.064636 948.879822,570.638123 
	C948.257263,570.495728 947.634705,570.353333 947.012146,570.210938 
	C948.719177,563.363342 950.424561,556.515259 952.148193,549.671875 
	C952.175293,549.564270 952.533386,549.423096 952.556396,549.450317 
	C952.723328,549.647827 952.843811,549.884644 952.987305,550.513367 
z"/>
<path fill="#000000" opacity="1.000000" stroke="none" 
	d="
M1040.303711,681.784729 
	C1042.498535,686.411743 1045.213135,690.385376 1043.106445,695.753479 
	C1040.339600,702.803711 1037.498413,705.099365 1028.993164,704.900879 
	C1028.993164,696.838928 1028.867188,688.744995 1029.063354,680.658813 
	C1029.129517,677.927551 1033.118164,676.865356 1036.122803,678.652771 
	C1037.502197,679.473328 1038.727783,680.552124 1040.303711,681.784729 
z"/>
<path fill="#000000" opacity="1.000000" stroke="none" 
	d="
M680.971558,678.489258 
	C689.471680,686.115784 689.401672,691.798950 686.072388,699.204407 
	C684.269348,703.214844 677.944641,706.438049 673.981995,704.923889 
	C673.190796,704.621643 672.114685,703.607117 672.113708,702.919739 
	C672.103882,695.968628 672.007812,688.996643 672.512329,682.072510 
	C672.906738,676.660217 677.220032,677.937317 680.971558,678.489258 
z"/>
<path fill="#000000" opacity="1.000000" stroke="none" 
	d="
M728.011169,684.671509 
	C726.514587,686.898376 724.999451,688.701965 723.484314,690.505615 
	C723.090027,690.289734 722.695679,690.073853 722.301331,689.857971 
	C722.301331,686.035034 722.301331,682.212036 722.301331,678.302368 
	C727.840210,676.823425 728.173767,680.286926 728.011169,684.671509 
z"/>
<path fill="#000000" opacity="1.000000" stroke="none" 
	d="
M940.991455,683.966553 
	C940.991272,681.861084 940.991272,680.216736 940.991272,678.198059 
	C944.409790,677.786560 947.395752,677.512817 948.001648,681.949646 
	C948.694580,687.024231 946.963440,689.046753 940.991638,689.856262 
	C940.991638,688.016174 940.991638,686.221863 940.991455,683.966553 
z"/>
<path fill="#000000" opacity="1.000000" stroke="none" 
	d="
M804.384766,686.297974 
	C805.738464,688.222656 806.771240,690.390930 807.994385,692.958984 
	C805.718872,693.404114 803.562805,693.825928 801.138489,694.300171 
	C802.257629,691.331970 803.160706,688.936768 804.384766,686.297974 
z"/>
</svg>